# xmcd
#
# Track frame offsets:
#	150
#	11545
#	31337
#	49371
#	66383
#	86002
#	103881
#	121317
#	135704
#	156910
#	175921
#	191898
#	214176
#	233921
#	250702
#	279589
#
# Disc length: 3742 seconds
#
# Revision: 0
# Processed by: cddbd v1.5.1PL0 Copyright (c) Steve Scherf et al.
# Submitted via: audiograbber 1.83.01
#
DISCID=ec0e9c10
DTITLE=January - CB60334-
DYEAR=2005
DGENRE=Karaoke
TTITLE0=Nichols, Joe - What's A Guy Gotta Do
TTITLE1=Urban, Keith - You're My Better Half
TTITLE2=Rascal Flatts - Bless The Open Road
TTITLE3=Womack, Lee Ann - I May Hate Myself In The Morning
TTITLE4=Montgomery Gentry - Gone
TTITLE5=Wayne, Jimmy - Paper Angels
TTITLE6=Lambert, Miranda - Me and Charlie Talking
TTITLE7=Chesnutt, Mark - I'm A Saint
TTITLE8=Evans, Sara - Tonight
TTITLE9=Green, Pat - Don't Break My Heart Again
TTITLE10=Morgan, Craig - That's What I Love About Sunday
TTITLE11=Wright, Chely - Bumper Of My SUV, The
TTITLE12=Big and Rich - Holy Water
TTITLE13=Griggs, Andy - If Heaven
TTITLE14=Dean, Billy - Let Them Be Little
TTITLE15=data
EXTD=
EXTT0=
EXTT1=
EXTT2=
EXTT3=
EXTT4=
EXTT5=
EXTT6=
EXTT7=
EXTT8=
EXTT9=
EXTT10=
EXTT11=
EXTT12=
EXTT13=
EXTT14=
EXTT15=
PLAYORDER=
